<svg width="15" height="15" viewBox="0 0 15 15" fill="none" xmlns="http://www.w3.org/2000/svg">
<path d="M6.68358 0.566683L13.2831 1.51335L14.2297 8.11335L8.09682 14.2333C7.97238 14.3667 7.81684 14.4333 7.63018 14.4333C7.44353 14.4333 7.28799 14.3667 7.16355 14.2333L0.564 7.63335C0.430676 7.5089 0.364014 7.35335 0.364014 7.16668C0.364014 6.98002 0.430676 6.82446 0.564 6.70002L6.68358 0.566683ZM7.16355 1.98002L1.97724 7.16668L7.63018 12.82L12.8165 7.63335L12.1099 2.68668L7.16355 1.98002ZM8.57679 6.22002C8.40791 6.05113 8.29236 5.85335 8.23014 5.62668C8.16793 5.40002 8.16793 5.17113 8.23014 4.94002C8.29236 4.70891 8.40791 4.5089 8.57679 4.34002C8.74566 4.17113 8.94343 4.05557 9.17008 3.99335C9.39673 3.93113 9.6256 3.93113 9.8567 3.99335C10.0878 4.05557 10.2878 4.17113 10.4567 4.34002C10.6255 4.5089 10.7411 4.70891 10.8033 4.94002C10.8655 5.17113 10.8655 5.40002 10.8033 5.62668C10.7411 5.85335 10.6255 6.05113 10.4567 6.22002C10.2878 6.3889 10.0878 6.50446 9.8567 6.56668C9.6256 6.6289 9.39673 6.6289 9.17008 6.56668C8.94343 6.50446 8.74566 6.3889 8.57679 6.22002Z" fill="#2C7A51"/>
</svg>
