<svg width="15" height="15" viewBox="0 0 15 15" fill="none" xmlns="http://www.w3.org/2000/svg">
<path d="M3.68912 8.91333L1.80988 10.7933L4.16893 13.1533L13.112 4.20666L10.753 1.84666L9.34019 3.26L10.2865 4.20666L9.34019 5.14L8.40723 4.20666L6.99446 5.62L8.40723 7.03333L7.46094 7.96666L6.04818 6.55333L4.63541 7.96666L5.5817 8.91333L4.63541 9.86L3.68912 8.91333ZM11.2328 0.433329L14.5248 3.72666C14.6581 3.86 14.7247 4.01777 14.7247 4.2C14.7247 4.38222 14.6581 4.54 14.5248 4.67333L4.63541 14.5667C4.50213 14.7 4.34442 14.7667 4.16227 14.7667C3.98012 14.7667 3.8224 14.7 3.68912 14.5667L0.397109 11.2733C0.263829 11.14 0.197189 10.9822 0.197189 10.8C0.197189 10.6178 0.263829 10.46 0.397109 10.3267L10.2865 0.433329C10.4198 0.299995 10.5775 0.233329 10.7596 0.233329C10.9418 0.233329 11.0995 0.299995 11.2328 0.433329Z" fill="#2C7A51"/>
</svg>
