<svg width="13" height="15" viewBox="0 0 13 15" fill="none" xmlns="http://www.w3.org/2000/svg">
<path d="M3.63985 5.4467L6.92969 2.14004L10.2195 5.4467C10.8233 6.04226 11.2318 6.74448 11.4449 7.55337C11.6491 8.34448 11.6491 9.13559 11.4449 9.9267C11.2318 10.7356 10.8256 11.44 10.2262 12.04C9.62683 12.64 8.92313 13.0467 8.1151 13.26C7.32483 13.4645 6.53456 13.4645 5.74428 13.26C4.93625 13.0467 4.23255 12.64 3.63319 12.04C3.03382 11.44 2.62759 10.7356 2.41448 9.9267C2.21025 9.13559 2.21025 8.34448 2.41448 7.55337C2.62759 6.74448 3.03604 6.04226 3.63985 5.4467ZM11.1652 4.50004L6.92969 0.260037L2.69419 4.50004C1.92167 5.26448 1.40222 6.17115 1.13584 7.22004C0.869454 8.23337 0.869454 9.2467 1.13584 10.26C1.40222 11.3089 1.91945 12.2178 2.68753 12.9867C3.4556 13.7556 4.36353 14.2778 5.4113 14.5534C6.42356 14.8111 7.43582 14.8111 8.44808 14.5534C9.49586 14.2778 10.4038 13.7556 11.1719 12.9867C11.9399 12.2178 12.4572 11.3089 12.7235 10.26C12.9899 9.2467 12.9899 8.23337 12.7235 7.22004C12.4572 6.17115 11.9377 5.26448 11.1652 4.50004ZM9.75336 6.86004L8.8077 5.91337L4.10602 10.6334L5.05168 11.5667L9.75336 6.86004ZM4.34577 7.5667C4.54111 7.76226 4.77642 7.86004 5.05168 7.86004C5.32695 7.86004 5.56225 7.76226 5.7576 7.5667C5.95295 7.37115 6.05062 7.13559 6.05062 6.86004C6.05062 6.58448 5.95295 6.34893 5.7576 6.15337C5.56225 5.95782 5.32695 5.86004 5.05168 5.86004C4.77642 5.86004 4.54111 5.95782 4.34577 6.15337C4.15042 6.34893 4.05274 6.58448 4.05274 6.86004C4.05274 7.13559 4.15042 7.37115 4.34577 7.5667ZM9.51362 11.34C9.31827 11.5356 9.08296 11.6334 8.8077 11.6334C8.53244 11.6334 8.29713 11.5356 8.10178 11.34C7.90643 11.1445 7.80876 10.9089 7.80876 10.6334C7.80876 10.3578 7.90643 10.1223 8.10178 9.9267C8.29713 9.73115 8.53244 9.63337 8.8077 9.63337C9.08296 9.63337 9.31827 9.73115 9.51362 9.9267C9.70897 10.1223 9.80664 10.3578 9.80664 10.6334C9.80664 10.9089 9.70897 11.1445 9.51362 11.34Z" fill="#2C7A51"/>
</svg>
