<svg width="14" height="15" viewBox="0 0 14 15" fill="none" xmlns="http://www.w3.org/2000/svg">
<path d="M7.16406 14.1667C6.25739 14.1667 5.39072 13.9934 4.56406 13.6467C3.77295 13.3089 3.0685 12.8311 2.45072 12.2134C1.83295 11.5956 1.35517 10.8911 1.01739 10.1C0.670724 9.27335 0.497391 8.40669 0.497391 7.50002C0.497391 6.59335 0.670724 5.72669 1.01739 4.90002C1.35517 4.10891 1.83295 3.40447 2.45072 2.78669C3.0685 2.16891 3.77295 1.69113 4.56406 1.35335C5.39072 1.00669 6.25739 0.833354 7.16406 0.833354C8.07072 0.833354 8.93739 1.00669 9.76406 1.35335C10.5552 1.69113 11.2596 2.16891 11.8774 2.78669C12.4952 3.40447 12.9729 4.10891 13.3107 4.90002C13.6574 5.72669 13.8307 6.59335 13.8307 7.50002C13.8307 8.40669 13.6574 9.27335 13.3107 10.1C12.9729 10.8911 12.4952 11.5956 11.8774 12.2134C11.2596 12.8311 10.5552 13.3089 9.76406 13.6467C8.93739 13.9934 8.07072 14.1667 7.16406 14.1667ZM7.16406 12.8334C8.13295 12.8334 9.03072 12.5889 9.85739 12.1C10.6574 11.6289 11.2929 10.9934 11.7641 10.1934C12.2529 9.36669 12.4974 8.46891 12.4974 7.50002C12.4974 6.53113 12.2529 5.63335 11.7641 4.80669C11.2929 4.00669 10.6574 3.37113 9.85739 2.90002C9.03072 2.41113 8.13295 2.16669 7.16406 2.16669C6.19517 2.16669 5.29739 2.41113 4.47072 2.90002C3.67072 3.37113 3.03517 4.00669 2.56406 4.80669C2.07517 5.63335 1.83072 6.53113 1.83072 7.50002C1.83072 8.46891 2.07517 9.36669 2.56406 10.1934C3.03517 10.9934 3.67072 11.6289 4.47072 12.1C5.29739 12.5889 6.19517 12.8334 7.16406 12.8334ZM7.83072 7.50002H10.4974V8.83335H6.49739V4.16669H7.83072V7.50002Z" fill="#2C7A51"/>
</svg>
