<svg width="15" height="15" viewBox="0 0 15 15" fill="none" xmlns="http://www.w3.org/2000/svg">
<path d="M12.1557 14.0467H2.82862C2.64208 14.0467 2.4844 13.9822 2.3556 13.8534C2.2268 13.7245 2.1624 13.5667 2.1624 13.38V7.38002H0.163727L7.03915 1.12669C7.1724 1.01114 7.32341 0.953359 7.49218 0.953359C7.66096 0.953359 7.81197 1.01114 7.94522 1.12669L14.8206 7.38002H12.822V13.38C12.822 13.5667 12.7576 13.7245 12.6288 13.8534C12.5 13.9822 12.3423 14.0467 12.1557 14.0467ZM8.15841 12.7134H11.4895V6.15336L7.49218 2.51336L3.49484 6.15336V12.7134H6.82596V8.71336H8.15841V12.7134Z" fill="#2C7A51"/>
</svg>
