<?xml version="1.0" encoding="UTF-8"?>
<svg id="_레이어_1" data-name="레이어_1" xmlns="http://www.w3.org/2000/svg" version="1.1" viewBox="0 0 160 160">
  <!-- Generator: Adobe Illustrator 29.4.0, SVG Export Plug-In . SVG Version: 2.1.0 Build 152)  -->
  <defs>
    <style>
      .st0 {
        fill: #4f4f4f;
      }

      .st1 {
        fill: #e2e2e2;
      }

      .st2 {
        fill: #2c7a51;
      }

      .st3 {
        fill: #f5f5f5;
      }
    </style>
  </defs>
  <rect class="st1" y="159.84" width="160" height=".16"/>
  <rect class="st0" width=".16" height="159.84"/>
  <path class="st2" d="M50.53,98.97c5.48,4.31,11.92,5.43,18.78,5.17,1.76,5.71,4.01,11.25,6.92,16.46,5.69,10.18,15.39,21.97,26.8,25.71,13.11,4.3,33.63.08,42.15-11.42,1.6-2.17,4.57-7.61,2.31-9.99-2.12-2.23-3.41,1.57-4.56,2.43-1.04.78-3.97.61-5.55.95-.75.16-3.75,1.36-3.95,1.31-.94-.23-.04-1.88.24-2.37,3.09-5.31,12.27-13.76,18.53-14.47,10.49-1.18,8.78,7.98,5.51,14.45-6.98,13.8-24.5,23.74-39.3,26.45-25.27,4.63-46.4-6.02-59.43-27.58-4.82-7.97-8.66-17.63-8.46-27.08Z"/>
  <path class="st2" d="M45.71,59.9c-.19,10.62,1.53,21.55,7.45,30.51,1.95,2.96,4.83,6.06,7.46,8.44.45.4,2.8,2,2.88,2.18.12.27.15.67-.32.57-2.8-.63-6.45-2.16-8.97-3.55-1.76-.97-3.31-2.31-5.13-3.18-3.39,11.21.95,23,6.45,32.72,2.88,5.08,6.32,9.83,9.91,14.42.4.52,3.7,4.1,3.36,4.47-.72-.28-1.59-1.05-2.17-1.56-13.34-11.87-25.12-31.31-32.04-47.71-4.76-11.3-8.75-23.58-9.82-35.86,7.01.63,14.03-.3,20.93-1.44Z"/>
  <path class="st2" d="M59.43,33.13l-.39,1.7c-4.82-.2-10.28.59-14.51,3.02-7.64,4.38-8.29,13.99-18.3,17.11-4.06,1.26-11.18.75-13.95,3.62l-5.9,8.07c-.55.09-.34-.18-.3-.54.2-1.91.94-4.02,1.15-5.97-1.95-.29-3.95-.38-5.9-.73-.39-.07-.78.12-1.08-.36.23-.35.61-.36.96-.48,3.81-1.31,9.52-2.86,13.47-3.62,5.42-1.05,10.41-.48,15.24-3.77,5.26-3.59,7.04-10.28,12.36-13.9,4.85-3.3,11.4-4.29,17.16-4.14Z"/>
  <path class="st2" d="M31.52,23l3.6,9.05-10.72-9.99c-.8-.79-.05-1.17.54-1.66,4.06-3.44,10.51-6.85,15.07-10.22,1.5-1.11,6.17-5.35,7.5-5.51,3.27-.39,9.08-.13,12.53,0,6.07.22,20.47,1.52,25.59,4.25,9.08,4.83,16.9,16.14,17.59,26.5,1.49,22.18-11.36,42.61-27.92,56.08,6.73,1.86,13,5.67,17.56,10.98l3.14,4.7v-33.88c8.23-11.98,13.54-28.04,10.23-42.57-.24-1.05-.93-2.25-1.06-3.27-.19-1.43.09-3.09-.02-4.56-.35-4.47-1.7-8.85-3.89-12.74l-2.84-4.27,18.45,1.52c2.29,3.88,3.39,8.57,3.68,13.07.66,10.51-1.36,21.07-3.72,31.23-3.51,15.12-9.35,30.04-8.78,45.82l9.49-22.19c3.8-9.93,8.13-19.87,9.03-30.62.32,0,.56.68.64.92.41,1.22.68,3.02.97,4.34,3.27,14.98,5.75,30.62,4.89,45.99,0,.28.3,0,.36-.12,1.43-2.51,3.56-9.97,4.51-13.08,7.02-22.85,7.96-47.45.66-70.36l17.27,5.84c.71,3.84,1.34,7.76,1.74,11.64,1.62,15.76,1.23,32.58-2.66,47.97-5.69,22.5-19.91,42-34.27,59.71l-1.8-42.2-8.18,49.2c-.36.1-.41-.12-.61-.23-5.97-3.29-13.86-12.49-17.73-18.16-8.1-11.89-12.81-21.23-26.01-28.67-1.73-.98-5.95-2.55-7.15-3.68-1.27-1.2-2.36-5.34-3.32-6.97.08-.43,5.92-4.69,6.81-5.47,7.94-6.87,17-18.79,19.98-28.93,2.46-8.37,3.04-20.05-5.25-25.28-4.77,3.17-8.5,7.62-11.9,12.18-1.82,2.44-3.35,5.15-5.24,7.53-3.68,4.64-6.36,6.03-10.3.48-.63-.88-1.74-2.56-1.71-3.59l6.3,4.07.44-.22,11.43-24.6H31.52ZM61.11,12.15c-.33-.7-1.34-.95-2.04-1.21-3.49-1.28-9.28-1.91-12.47.28-1.72,1.18-2.13,3.46-3.53,4.9-.62.64-1.73,1.13-2.35,1.74-.29.28-.4.18-.3.8.18.2,4.39-1.56,5.19-1.67,2.26-.3,4.16.3,6.54-.44,3.41-1.06,4.91-5.03,8.96-4.41Z"/>
  <path d="M61.11,12.15c-4.05-.62-5.55,3.35-8.96,4.41-2.38.74-4.28.14-6.54.44-.8.11-5.01,1.87-5.19,1.67-.11-.61,0-.51.3-.8.61-.6,1.73-1.1,2.35-1.74,1.4-1.44,1.81-3.72,3.53-4.9,3.2-2.2,8.99-1.56,12.47-.28.7.26,1.71.51,2.04,1.21ZM54.35,12.41c-2.32-.88-6.14-1-7.37,1.61-1.01,2.14,2.94,1.7,4.22,1.34.84-.24,3.9-1.88,3.15-2.95Z"/>
  <path class="st3" d="M54.35,12.41c.75,1.07-2.3,2.71-3.15,2.95-1.29.36-5.23.8-4.22-1.34,1.23-2.62,5.06-2.49,7.37-1.61Z"/>
</svg>